# This file uses centimeters as units for non-parametric coordinates.

mtllib pikpik_01.mtl
g default
v 0.000000 0.000000 -1.829455
v 1.323806 0.961802 -0.818157
v -0.505649 1.556228 -0.818158
v -1.636315 -0.000000 -0.818158
v -0.505649 -1.556228 -0.818157
v 1.323806 -0.961802 -0.818157
v 1.636315 0.000000 0.818158
v 0.505649 1.556228 0.818157
v -1.323806 0.961802 0.818158
v -1.323806 -0.961802 0.818157
v 0.505649 -1.556228 0.818157
v 0.000000 0.000000 1.829455
v -0.105272 2.126620 2.990341
v -1.622933 -1.360503 -2.625961
v 1.921095 -0.000000 -2.961111
v -2.575864 1.871475 -0.364241
v -0.868363 -2.672547 0.292472
v 0.967847 2.978726 -0.363963
v -0.693266 -1.671764 2.543815
v 2.419361 -1.757768 0.340608
v 2.568547 1.866163 0.386225
vt 1.000000 0.500000
vt 0.838104 0.676208
vt 0.088104 0.823792
vt 0.176208 0.500000
vt 0.088104 0.176208
vt 0.838104 0.323792
vt 0.676208 0.500000
vt 0.588104 0.823792
vt 0.338104 0.676208
vt 0.338104 0.323792
vt 0.588104 0.176208
vt 0.500000 0.500000
vt 1.088104 0.823792
vt 1.176208 0.500000
vt 1.088104 0.176208
vt 0.475403 0.666667
vt 1.088104 0.392069
vt 0.892069 0.500000
vt 0.200805 0.666667
vt 0.338104 0.225403
vt 0.838104 0.774597
vt 0.475403 0.333333
vt 0.700805 0.333333
vt 0.700805 0.666667
vn 0.187593 0.577350 -0.794655
vn 0.187593 0.577350 -0.794655
vn 0.187593 0.577350 -0.794655
vn -0.491123 0.356822 -0.794655
vn -0.491123 0.356822 -0.794655
vn -0.491123 0.356822 -0.794655
vn 0.187592 -0.577350 -0.794654
vn 0.187592 -0.577350 -0.794654
vn 0.187592 -0.577350 -0.794654
vn -0.794654 -0.577350 -0.187592
vn -0.794654 -0.577350 -0.187592
vn -0.794654 -0.577350 -0.187592
vn 0.303531 -0.934172 -0.187593
vn 0.303531 -0.934172 -0.187593
vn 0.303531 -0.934172 -0.187593
vn 0.982247 -0.000000 -0.187593
vn 0.982247 -0.000000 -0.187593
vn 0.982247 -0.000000 -0.187593
vn -0.303531 0.934172 0.187593
vn -0.303531 0.934172 0.187593
vn -0.303531 0.934172 0.187593
vn -0.982247 -0.000000 0.187593
vn -0.982247 -0.000000 0.187593
vn -0.982247 -0.000000 0.187593
vn 0.491123 0.356822 0.794655
vn 0.491123 0.356822 0.794655
vn 0.491123 0.356822 0.794655
vn -0.607062 -0.000000 0.794654
vn -0.607062 -0.000000 0.794655
vn -0.607062 -0.000000 0.794654
vn 0.491123 -0.356822 0.794655
vn 0.491123 -0.356822 0.794655
vn 0.491123 -0.356822 0.794655
vn -0.292867 0.901351 -0.319053
vn -0.292867 0.901351 -0.319053
vn -0.292867 0.901351 -0.319053
vn -0.717405 -0.360823 0.595933
vn -0.717405 -0.360823 0.595933
vn -0.717405 -0.360823 0.595933
vn 0.947964 -0.115114 0.296840
vn 0.947964 -0.115114 0.296840
vn 0.947964 -0.115114 0.296840
vn 0.689328 -0.538729 -0.484354
vn 0.689328 -0.538729 -0.484354
vn 0.689328 -0.538729 -0.484354
vn -0.741496 -0.538729 0.399943
vn -0.741496 -0.538729 0.399944
vn -0.741496 -0.538729 0.399944
vn -0.349250 0.747454 -0.565099
vn -0.349250 0.747454 -0.565099
vn -0.349250 0.747454 -0.565099
vn -0.268454 0.848673 -0.455726
vn -0.268454 0.848673 -0.455726
vn -0.268454 0.848673 -0.455726
vn 0.963283 0.000000 0.268488
vn 0.963283 0.000000 0.268488
vn 0.963283 0.000000 0.268488
vn -0.268454 -0.848673 -0.455726
vn -0.268454 -0.848673 -0.455726
vn -0.268454 -0.848674 -0.455726
vn -0.191791 0.139344 -0.971493
vn -0.191791 0.139344 -0.971493
vn -0.191791 0.139344 -0.971493
vn -0.760205 -0.486176 0.430954
vn -0.760205 -0.486176 0.430954
vn -0.760205 -0.486176 0.430954
vn 0.227465 0.873235 0.430954
vn 0.227465 0.873235 0.430954
vn 0.227465 0.873235 0.430954
vn 0.664427 -0.624430 -0.410639
vn 0.664427 -0.624430 -0.410639
vn 0.664427 -0.624430 -0.410639
vn -0.103042 -0.317130 0.942768
vn -0.103042 -0.317130 0.942768
vn -0.103042 -0.317130 0.942768
vn -0.904564 -0.114635 -0.410638
vn -0.904564 -0.114635 -0.410638
vn -0.904564 -0.114635 -0.410638
vn 0.075282 0.231693 -0.969872
vn 0.075282 0.231693 -0.969872
vn 0.075282 0.231693 -0.969872
vn -0.692531 0.580699 0.428008
vn -0.692531 0.580699 0.428008
vn -0.692531 0.580699 0.428008
vn 0.901595 0.062735 0.428008
vn 0.901595 0.062735 0.428008
vn 0.901595 0.062735 0.428008
vn -0.297698 -0.916221 -0.268171
vn -0.297698 -0.916221 -0.268171
vn -0.297698 -0.916221 -0.268171
vn 0.820284 -0.099488 0.563238
vn 0.820284 -0.099488 0.563238
vn 0.820284 -0.099488 0.563238
vn -0.724980 0.502109 0.471477
vn -0.724980 0.502109 0.471477
vn -0.724980 0.502109 0.471477
vn 0.780698 0.462080 -0.420704
vn 0.780698 0.462080 -0.420704
vn 0.780698 0.462080 -0.420704
vn 0.222837 -0.161901 0.961318
vn 0.222837 -0.161901 0.961318
vn 0.222837 -0.161901 0.961318
vn -0.198215 -0.885279 -0.420704
vn -0.198215 -0.885279 -0.420704
vn -0.198215 -0.885279 -0.420704
vn -0.221380 0.875828 -0.428854
vn -0.221380 0.875828 -0.428854
vn -0.221380 0.875828 -0.428854
vn 0.183837 0.133565 0.973840
vn 0.183837 0.133565 0.973840
vn 0.183837 0.133565 0.973840
vn 0.764554 -0.481189 -0.428853
vn 0.764554 -0.481189 -0.428853
vn 0.764554 -0.481189 -0.428853
s off
g pPlatonic1
usemtl initialShadingGroup
f 1/1/1 3/13/2 2/2/3
f 1/1/4 4/14/5 3/13/6
f 1/1/7 6/6/8 5/15/9
f 4/4/10 5/5/11 10/10/12
f 5/15/13 6/6/14 11/11/15
f 6/6/16 2/2/17 7/7/18
f 3/3/19 9/9/20 8/8/21
f 4/4/22 10/10/23 9/9/24
f 7/7/25 8/8/26 12/12/27
f 9/9/28 10/10/29 12/12/30
f 11/11/31 7/7/32 12/12/33
f 8/8/34 9/9/35 13/16/36
f 9/9/37 12/12/38 13/16/39
f 12/12/40 8/8/41 13/16/42
f 1/1/43 5/15/44 14/17/45
f 5/15/46 4/14/47 14/17/48
f 4/14/49 1/1/50 14/17/51
f 1/1/52 2/2/53 15/18/54
f 2/2/55 6/6/56 15/18/57
f 6/6/58 1/1/59 15/18/60
f 3/3/61 4/4/62 16/19/63
f 4/4/64 9/9/65 16/19/66
f 9/9/67 3/3/68 16/19/69
f 5/5/70 11/11/71 17/20/72
f 11/11/73 10/10/74 17/20/75
f 10/10/76 5/5/77 17/20/78
f 2/2/79 3/13/80 18/21/81
f 3/13/82 8/8/83 18/21/84
f 8/8/85 2/2/86 18/21/87
f 10/10/88 11/11/89 19/22/90
f 11/11/91 12/12/92 19/22/93
f 12/12/94 10/10/95 19/22/96
f 6/6/97 7/7/98 20/23/99
f 7/7/100 11/11/101 20/23/102
f 11/11/103 6/6/104 20/23/105
f 2/2/106 8/8/107 21/24/108
f 8/8/109 7/7/110 21/24/111
f 7/7/112 2/2/113 21/24/114
