# This file uses centimeters as units for non-parametric coordinates.

mtllib tinySkybox_03.mtl
g default
v 6.742974 -0.723563 -0.235100
v 6.742974 -0.615500 -0.447187
v 6.742974 -0.447186 -0.615500
v 6.742974 -0.235100 -0.723563
v 6.742974 0.000000 -0.760799
v 6.742974 0.235100 -0.723563
v 6.742974 0.447187 -0.615499
v 6.742974 0.615499 -0.447187
v 6.742974 0.723563 -0.235100
v 6.742974 0.760799 -0.000000
v 6.742974 0.723563 0.235100
v 6.742974 0.615499 0.447186
v 6.742974 0.447187 0.615499
v 6.742974 0.235100 0.723563
v 6.742974 0.000000 0.760799
v 6.742974 -0.235100 0.723563
v 6.742974 -0.447186 0.615499
v 6.742974 -0.615499 0.447186
v 6.742974 -0.723563 0.235100
v 6.742974 -0.760799 -0.000000
v 8.135128 -0.662008 -0.215100
v 8.135128 -0.563138 -0.409144
v 8.135128 -0.409144 -0.563138
v 8.135128 -0.215100 -0.662009
v 8.135128 0.000000 -0.696077
v 8.135128 0.215100 -0.662008
v 8.135128 0.409144 -0.563138
v 8.135128 0.563138 -0.409144
v 8.135128 0.662008 -0.215100
v 8.135128 0.696077 -0.000000
v 8.135128 0.662008 0.215099
v 8.135128 0.563138 0.409144
v 8.135128 0.409144 0.563138
v 8.135128 0.215100 0.662008
v 8.135128 0.000000 0.696077
v 8.135128 -0.215099 0.662008
v 8.135128 -0.409144 0.563138
v 8.135128 -0.563138 0.409144
v 8.135128 -0.662008 0.215099
v 8.135128 -0.696077 -0.000000
v 2.385407 -0.816520 -0.265304
v 2.385407 -0.694574 -0.504638
v 2.385407 -0.504638 -0.694574
v 2.385407 -0.265303 -0.816521
v 2.385407 0.000000 -0.858540
v 2.385407 0.265304 -0.816521
v 2.385407 0.504638 -0.694574
v 2.385407 0.694570 -0.504637
v 2.385407 0.816517 -0.265303
v 2.385407 0.858540 0.000000
v 2.385407 0.816521 0.265303
v 2.385407 0.694574 0.504637
v 2.385407 0.504644 0.694574
v 2.385407 0.265310 0.816520
v 2.385407 0.000000 0.858540
v 2.385407 -0.265303 0.816520
v 2.385407 -0.504637 0.694574
v 2.385407 -0.694570 0.504637
v 2.385407 -0.816517 0.265303
v 2.385407 -0.858540 0.000000
v -2.654974 -5.889289 -1.913545
v -2.654974 -5.009727 -3.639779
v -2.654974 0.000004 0.000001
v -2.654974 -3.639780 -5.009727
v -2.654974 -1.913546 -5.889287
v -2.654974 -0.000001 -6.192362
v -2.654974 1.913545 -5.889286
v -2.654974 3.639779 -5.009725
v -2.654974 5.009702 -3.639778
v -2.654974 5.889263 -1.913544
v -2.654974 6.192361 0.000001
v -2.654974 5.889285 1.913545
v -2.654974 5.009725 3.639779
v -2.654974 3.639824 5.009726
v -2.654974 1.913589 5.889286
v -2.654974 -0.000000 6.192361
v -2.654974 -1.913545 5.889286
v -2.654974 -3.639778 5.009725
v -2.654974 -5.009702 3.639779
v -2.654974 -5.889263 1.913545
v -2.654974 -6.192360 0.000001
vt 0.648603 0.107966
vt 0.626409 0.064408
vt 0.591842 0.029841
vt 0.548284 0.007647
vt 0.500000 -0.000000
vt 0.451716 0.007647
vt 0.408159 0.029841
vt 0.373591 0.064409
vt 0.351397 0.107966
vt 0.343750 0.156250
vt 0.351397 0.204534
vt 0.373591 0.248091
vt 0.408159 0.282659
vt 0.451716 0.304853
vt 0.500000 0.312500
vt 0.548284 0.304853
vt 0.591841 0.282659
vt 0.626409 0.248091
vt 0.648603 0.204534
vt 0.656250 0.156250
vt 0.375000 0.312500
vt 0.387500 0.312500
vt 0.400000 0.312500
vt 0.412500 0.312500
vt 0.425000 0.312500
vt 0.437500 0.312500
vt 0.450000 0.312500
vt 0.462500 0.312500
vt 0.475000 0.312500
vt 0.487500 0.312500
vt 0.500000 0.312500
vt 0.512500 0.312500
vt 0.525000 0.312500
vt 0.537500 0.312500
vt 0.550000 0.312500
vt 0.562500 0.312500
vt 0.575000 0.312500
vt 0.587500 0.312500
vt 0.600000 0.312500
vt 0.612500 0.312500
vt 0.625000 0.312500
vt 0.375000 0.688440
vt 0.387500 0.688440
vt 0.400000 0.688440
vt 0.412500 0.688440
vt 0.425000 0.688440
vt 0.437500 0.688440
vt 0.450000 0.688440
vt 0.462500 0.688440
vt 0.475000 0.688440
vt 0.487500 0.688440
vt 0.500000 0.688440
vt 0.512500 0.688440
vt 0.525000 0.688440
vt 0.537500 0.688440
vt 0.550000 0.688440
vt 0.562500 0.688440
vt 0.575000 0.688440
vt 0.587500 0.688440
vt 0.600000 0.688440
vt 0.612500 0.688440
vt 0.625000 0.688440
vt 0.500000 0.150000
vt 0.626409 0.064408
vt 0.648603 0.107966
vt 0.591842 0.029841
vt 0.548284 0.007647
vt 0.500000 -0.000000
vt 0.451716 0.007647
vt 0.408159 0.029841
vt 0.373591 0.064409
vt 0.351397 0.107966
vt 0.343750 0.156250
vt 0.351397 0.204534
vt 0.373591 0.248091
vt 0.408159 0.282659
vt 0.451716 0.304853
vt 0.500000 0.312500
vt 0.548284 0.304853
vt 0.591841 0.282659
vt 0.626409 0.248091
vt 0.648603 0.204534
vt 0.656250 0.156250
vt 0.626409 0.064408
vt 0.648603 0.107966
vt 0.591842 0.029841
vt 0.548284 0.007647
vt 0.500000 -0.000000
vt 0.451716 0.007647
vt 0.408159 0.029841
vt 0.373591 0.064409
vt 0.351397 0.107966
vt 0.343750 0.156250
vt 0.351397 0.204534
vt 0.373591 0.248091
vt 0.408159 0.282659
vt 0.451716 0.304853
vt 0.500000 0.312500
vt 0.548284 0.304853
vt 0.591841 0.282659
vt 0.626409 0.248091
vt 0.648603 0.204534
vt 0.656250 0.156250
vn -0.027763 0.950691 0.308896
vn -0.046441 0.950031 0.308683
vn -0.046441 0.808144 0.587151
vn -0.027763 0.808705 0.587558
vn -0.046441 0.587151 0.808144
vn -0.027763 0.587558 0.808706
vn -0.046441 0.308683 0.950031
vn -0.027763 0.308897 0.950690
vn -0.046441 -0.000000 0.998921
vn -0.027763 -0.000000 0.999615
vn -0.046441 -0.308684 0.950030
vn -0.027763 -0.308897 0.950690
vn -0.046441 -0.587151 0.808144
vn -0.027763 -0.587560 0.808704
vn -0.046441 -0.808144 0.587151
vn -0.027762 -0.808707 0.587557
vn -0.046441 -0.950031 0.308683
vn -0.027762 -0.950689 0.308900
vn -0.046441 -0.998921 0.000000
vn -0.027762 -0.999615 0.000003
vn -0.046441 -0.950030 -0.308684
vn -0.027763 -0.950690 -0.308898
vn -0.046441 -0.808144 -0.587151
vn -0.027763 -0.808708 -0.587555
vn -0.046441 -0.587151 -0.808144
vn -0.027763 -0.587561 -0.808704
vn -0.046441 -0.308683 -0.950031
vn -0.027763 -0.308896 -0.950691
vn -0.046441 0.000000 -0.998921
vn -0.027763 0.000000 -0.999615
vn -0.046441 0.308684 -0.950030
vn -0.027763 0.308897 -0.950690
vn -0.046441 0.587151 -0.808144
vn -0.027763 0.587560 -0.808704
vn -0.046441 0.808144 -0.587151
vn -0.027762 0.808707 -0.587557
vn -0.046441 0.950031 -0.308684
vn -0.027762 0.950689 -0.308900
vn -0.046441 0.998921 -0.000001
vn -0.027762 0.999615 -0.000003
vn 1.000000 0.000000 -0.000000
vn 1.000000 0.000000 -0.000000
vn 1.000000 0.000000 -0.000000
vn 1.000000 0.000000 -0.000000
vn 1.000000 0.000000 -0.000000
vn 1.000000 0.000000 0.000000
vn 1.000000 0.000000 0.000000
vn 1.000000 0.000000 0.000000
vn 1.000000 0.000000 0.000000
vn 1.000000 0.000000 -0.000000
vn 1.000000 0.000000 0.000000
vn 1.000000 0.000000 0.000000
vn 1.000000 0.000000 -0.000000
vn 1.000000 0.000000 -0.000000
vn 1.000000 0.000000 0.000000
vn 1.000000 0.000000 -0.000000
vn 1.000000 0.000000 -0.000000
vn 1.000000 0.000000 0.000000
vn 1.000000 0.000000 0.000000
vn 1.000000 0.000000 0.000000
vn 1.000000 0.000000 -0.000000
vn -0.022425 0.808814 0.587637
vn -0.022425 0.950818 0.308938
vn -0.022425 0.587637 0.808814
vn -0.022425 0.308938 0.950818
vn -0.022425 -0.000000 0.999749
vn -0.022425 -0.308938 0.950818
vn -0.022425 -0.587639 0.808812
vn -0.022424 -0.808815 0.587635
vn -0.022424 -0.950817 0.308942
vn -0.022424 -0.999749 0.000003
vn -0.022425 -0.950817 -0.308939
vn -0.022425 -0.808817 -0.587633
vn -0.022425 -0.587640 -0.808811
vn -0.022425 -0.308937 -0.950818
vn -0.022425 0.000000 -0.999749
vn -0.022425 0.308939 -0.950818
vn -0.022425 0.587639 -0.808812
vn -0.022424 0.808815 -0.587635
vn -0.022424 0.950816 -0.308942
vn -0.022424 0.999749 -0.000004
vn -0.722554 0.615965 0.313850
vn -0.722554 0.615965 0.313851
vn -0.722554 0.615965 0.313851
vn -0.722554 0.615965 0.313850
vn -0.722554 0.488833 0.488833
vn -0.722554 0.488833 0.488833
vn -0.722554 0.488833 0.488833
vn -0.722554 0.488833 0.488833
vn -0.722554 0.313850 0.615966
vn -0.722554 0.313850 0.615966
vn -0.722554 0.313850 0.615966
vn -0.722554 0.313850 0.615966
vn -0.722554 0.108145 0.682803
vn -0.722554 0.108145 0.682803
vn -0.722554 0.108145 0.682803
vn -0.722554 0.108145 0.682803
vn -0.722554 -0.108145 0.682803
vn -0.722554 -0.108145 0.682803
vn -0.722554 -0.108145 0.682803
vn -0.722554 -0.108145 0.682803
vn -0.722554 -0.313850 0.615965
vn -0.722554 -0.313850 0.615965
vn -0.722554 -0.313850 0.615965
vn -0.722554 -0.313850 0.615965
vn -0.722554 -0.488838 0.488829
vn -0.722554 -0.488838 0.488829
vn -0.722554 -0.488838 0.488829
vn -0.722554 -0.488838 0.488829
vn -0.722553 -0.615966 0.313851
vn -0.722553 -0.615966 0.313851
vn -0.722553 -0.615966 0.313851
vn -0.722553 -0.615966 0.313851
vn -0.722554 -0.682802 0.108153
vn -0.722554 -0.682802 0.108153
vn -0.722554 -0.682802 0.108153
vn -0.722554 -0.682802 0.108153
vn -0.722554 -0.682803 -0.108145
vn -0.722554 -0.682803 -0.108145
vn -0.722554 -0.682803 -0.108145
vn -0.722554 -0.682803 -0.108145
vn -0.722554 -0.615965 -0.313851
vn -0.722554 -0.615966 -0.313851
vn -0.722554 -0.615965 -0.313851
vn -0.722554 -0.615966 -0.313851
vn -0.722555 -0.488840 -0.488824
vn -0.722555 -0.488840 -0.488824
vn -0.722555 -0.488840 -0.488824
vn -0.722555 -0.488840 -0.488824
vn -0.722555 -0.313850 -0.615964
vn -0.722555 -0.313850 -0.615964
vn -0.722555 -0.313850 -0.615964
vn -0.722555 -0.313850 -0.615964
vn -0.722554 -0.108142 -0.682803
vn -0.722554 -0.108142 -0.682803
vn -0.722554 -0.108142 -0.682803
vn -0.722554 -0.108142 -0.682803
vn -0.722554 0.108145 -0.682803
vn -0.722554 0.108145 -0.682803
vn -0.722554 0.108145 -0.682803
vn -0.722554 0.108145 -0.682803
vn -0.722554 0.313851 -0.615965
vn -0.722554 0.313851 -0.615965
vn -0.722554 0.313851 -0.615965
vn -0.722554 0.313851 -0.615965
vn -0.722554 0.488837 -0.488830
vn -0.722554 0.488837 -0.488830
vn -0.722554 0.488837 -0.488830
vn -0.722554 0.488837 -0.488830
vn -0.722553 0.615966 -0.313851
vn -0.722553 0.615966 -0.313851
vn -0.722553 0.615966 -0.313851
vn -0.722553 0.615966 -0.313851
vn -0.722554 0.682802 -0.108153
vn -0.722554 0.682802 -0.108153
vn -0.722554 0.682803 -0.108153
vn -0.722554 0.682802 -0.108153
vn -0.722554 0.682803 0.108144
vn -0.722554 0.682803 0.108144
vn -0.722554 0.682803 0.108144
vn -0.722554 0.682803 0.108144
s 1
g pCylinder1
usemtl initialShadingGroup
f 1/21/1 21/42/2 22/43/3 2/22/4
f 2/22/4 22/43/3 23/44/5 3/23/6
f 3/23/6 23/44/5 24/45/7 4/24/8
f 4/24/8 24/45/7 25/46/9 5/25/10
f 5/25/10 25/46/9 26/47/11 6/26/12
f 6/26/12 26/47/11 27/48/13 7/27/14
f 7/27/14 27/48/13 28/49/15 8/28/16
f 8/28/16 28/49/15 29/50/17 9/29/18
f 9/29/18 29/50/17 30/51/19 10/30/20
f 10/30/20 30/51/19 31/52/21 11/31/22
f 11/31/22 31/52/21 32/53/23 12/32/24
f 12/32/24 32/53/23 33/54/25 13/33/26
f 13/33/26 33/54/25 34/55/27 14/34/28
f 14/34/28 34/55/27 35/56/29 15/35/30
f 15/35/30 35/56/29 36/57/31 16/36/32
f 16/36/32 36/57/31 37/58/33 17/37/34
f 17/37/34 37/58/33 38/59/35 18/38/36
f 18/38/36 38/59/35 39/60/37 19/39/38
f 19/39/38 39/60/37 40/61/39 20/40/40
f 20/40/40 40/61/39 21/62/2 1/41/1
s 2
f 62/84/41 63/63/42 61/85/43
f 64/86/44 63/63/42 62/84/41
f 65/87/45 63/63/42 64/86/44
f 66/88/46 63/63/42 65/87/45
f 67/89/47 63/63/42 66/88/46
f 68/90/48 63/63/42 67/89/47
f 69/91/49 63/63/42 68/90/48
f 70/92/50 63/63/42 69/91/49
f 71/93/51 63/63/42 70/92/50
f 72/94/52 63/63/42 71/93/51
f 73/95/53 63/63/42 72/94/52
f 74/96/54 63/63/42 73/95/53
f 75/97/55 63/63/42 74/96/54
f 76/98/56 63/63/42 75/97/55
f 77/99/57 63/63/42 76/98/56
f 78/100/58 63/63/42 77/99/57
f 79/101/59 63/63/42 78/100/58
f 80/102/60 63/63/42 79/101/59
f 81/103/61 63/63/42 80/102/60
f 61/85/43 63/63/42 81/103/61
s 1
f 2/2/4 42/64/62 41/65/63 1/1/1
f 3/3/6 43/66/64 42/64/62 2/2/4
f 4/4/8 44/67/65 43/66/64 3/3/6
f 5/5/10 45/68/66 44/67/65 4/4/8
f 6/6/12 46/69/67 45/68/66 5/5/10
f 7/7/14 47/70/68 46/69/67 6/6/12
f 8/8/16 48/71/69 47/70/68 7/7/14
f 9/9/18 49/72/70 48/71/69 8/8/16
f 10/10/20 50/73/71 49/72/70 9/9/18
f 11/11/22 51/74/72 50/73/71 10/10/20
f 12/12/24 52/75/73 51/74/72 11/11/22
f 13/13/26 53/76/74 52/75/73 12/12/24
f 14/14/28 54/77/75 53/76/74 13/13/26
f 15/15/30 55/78/76 54/77/75 14/14/28
f 16/16/32 56/79/77 55/78/76 15/15/30
f 17/17/34 57/80/78 56/79/77 16/16/32
f 18/18/36 58/81/79 57/80/78 17/17/34
f 19/19/38 59/82/80 58/81/79 18/18/36
f 20/20/40 60/83/81 59/82/80 19/19/38
f 1/1/1 41/65/63 60/83/81 20/20/40
s off
f 42/64/82 62/84/83 61/85/84 41/65/85
f 43/66/86 64/86/87 62/84/88 42/64/89
f 44/67/90 65/87/91 64/86/92 43/66/93
f 45/68/94 66/88/95 65/87/96 44/67/97
f 46/69/98 67/89/99 66/88/100 45/68/101
f 47/70/102 68/90/103 67/89/104 46/69/105
f 48/71/106 69/91/107 68/90/108 47/70/109
f 49/72/110 70/92/111 69/91/112 48/71/113
f 50/73/114 71/93/115 70/92/116 49/72/117
f 51/74/118 72/94/119 71/93/120 50/73/121
f 52/75/122 73/95/123 72/94/124 51/74/125
f 53/76/126 74/96/127 73/95/128 52/75/129
f 54/77/130 75/97/131 74/96/132 53/76/133
f 55/78/134 76/98/135 75/97/136 54/77/137
f 56/79/138 77/99/139 76/98/140 55/78/141
f 57/80/142 78/100/143 77/99/144 56/79/145
f 58/81/146 79/101/147 78/100/148 57/80/149
f 59/82/150 80/102/151 79/101/152 58/81/153
f 60/83/154 81/103/155 80/102/156 59/82/157
f 41/65/158 61/85/159 81/103/160 60/83/161
