# This file uses centimeters as units for non-parametric coordinates.

mtllib tinySkybox_02.mtl
g default
v 7.164238 -1.039488 -0.337750
v 7.164238 -0.884241 -0.642439
v 7.164238 -0.642439 -0.884241
v 7.164238 -0.337750 -1.039488
v 7.164238 -0.000000 -1.092982
v 7.164238 0.337750 -1.039488
v 7.164238 0.642439 -0.884241
v 7.164238 0.884241 -0.642439
v 7.164238 1.039487 -0.337750
v 7.164238 1.092982 0.000000
v 7.164238 1.039487 0.337750
v 7.164238 0.884241 0.642439
v 7.164238 0.642439 0.884241
v 7.164238 0.337750 1.039487
v 7.164238 0.000000 1.092982
v 7.164238 -0.337750 1.039487
v 7.164238 -0.642438 0.884241
v 7.164238 -0.884241 0.642438
v 7.164238 -1.039487 0.337750
v 7.164238 -1.092982 0.000000
v 9.164238 -0.951057 -0.309017
v 9.164238 -0.809018 -0.587786
v 9.164238 -0.587786 -0.809017
v 9.164238 -0.309017 -0.951057
v 9.164238 0.000000 -1.000000
v 9.164238 0.309017 -0.951057
v 9.164238 0.587785 -0.809017
v 9.164238 0.809017 -0.587785
v 9.164238 0.951057 -0.309017
v 9.164238 1.000000 0.000000
v 9.164238 0.951057 0.309017
v 9.164238 0.809017 0.587785
v 9.164238 0.587785 0.809017
v 9.164238 0.309017 0.951057
v 9.164238 0.000000 1.000000
v 9.164238 -0.309017 0.951057
v 9.164238 -0.587785 0.809017
v 9.164238 -0.809017 0.587785
v 9.164238 -0.951057 0.309017
v 9.164238 -1.000000 0.000000
v 9.164238 0.000000 0.000000
v 2.392072 -2.286101 -0.742799
v 2.392072 -1.944674 -1.412888
v 2.392072 -1.412888 -1.944673
v 2.392072 -0.742799 -2.286100
v 2.392072 -0.000000 -2.403748
v 2.392072 0.742799 -2.286100
v 2.392072 1.412887 -1.944673
v 2.392072 1.944664 -1.412887
v 2.392072 2.286091 -0.742799
v 2.392072 2.403747 0.000000
v 2.392072 2.286099 0.742799
v 2.392072 1.944672 1.412888
v 2.392072 1.412905 1.944673
v 2.392072 0.742816 2.286100
v 2.392072 -0.000000 2.403748
v 2.392072 -0.742799 2.286100
v 2.392072 -1.412887 1.944672
v 2.392072 -1.944664 1.412887
v 2.392072 -2.286091 0.742799
v 2.392072 -2.403747 0.000000
v -2.654974 -5.889289 -1.913545
v -2.654974 -5.009727 -3.639779
v -2.654974 0.000004 0.000001
v -2.654974 -3.639780 -5.009727
v -2.654974 -1.913546 -5.889287
v -2.654974 -0.000001 -6.192362
v -2.654974 1.913545 -5.889286
v -2.654974 3.639779 -5.009725
v -2.654974 5.009702 -3.639778
v -2.654974 5.889263 -1.913544
v -2.654974 6.192361 0.000001
v -2.654974 5.889285 1.913545
v -2.654974 5.009725 3.639779
v -2.654974 3.639824 5.009726
v -2.654974 1.913589 5.889286
v -2.654974 -0.000000 6.192361
v -2.654974 -1.913545 5.889286
v -2.654974 -3.639778 5.009725
v -2.654974 -5.009702 3.639779
v -2.654974 -5.889263 1.913545
v -2.654974 -6.192360 0.000001
vt 0.648603 0.107966
vt 0.626409 0.064408
vt 0.591842 0.029841
vt 0.548284 0.007647
vt 0.500000 -0.000000
vt 0.451716 0.007647
vt 0.408159 0.029841
vt 0.373591 0.064409
vt 0.351397 0.107966
vt 0.343750 0.156250
vt 0.351397 0.204534
vt 0.373591 0.248091
vt 0.408159 0.282659
vt 0.451716 0.304853
vt 0.500000 0.312500
vt 0.548284 0.304853
vt 0.591841 0.282659
vt 0.626409 0.248091
vt 0.648603 0.204534
vt 0.656250 0.156250
vt 0.375000 0.312500
vt 0.387500 0.312500
vt 0.400000 0.312500
vt 0.412500 0.312500
vt 0.425000 0.312500
vt 0.437500 0.312500
vt 0.450000 0.312500
vt 0.462500 0.312500
vt 0.475000 0.312500
vt 0.487500 0.312500
vt 0.500000 0.312500
vt 0.512500 0.312500
vt 0.525000 0.312500
vt 0.537500 0.312500
vt 0.550000 0.312500
vt 0.562500 0.312500
vt 0.575000 0.312500
vt 0.587500 0.312500
vt 0.600000 0.312500
vt 0.612500 0.312500
vt 0.625000 0.312500
vt 0.375000 0.688440
vt 0.387500 0.688440
vt 0.400000 0.688440
vt 0.412500 0.688440
vt 0.425000 0.688440
vt 0.437500 0.688440
vt 0.450000 0.688440
vt 0.462500 0.688440
vt 0.475000 0.688440
vt 0.487500 0.688440
vt 0.500000 0.688440
vt 0.512500 0.688440
vt 0.525000 0.688440
vt 0.537500 0.688440
vt 0.550000 0.688440
vt 0.562500 0.688440
vt 0.575000 0.688440
vt 0.587500 0.688440
vt 0.600000 0.688440
vt 0.612500 0.688440
vt 0.625000 0.688440
vt 0.648603 0.795466
vt 0.626409 0.751908
vt 0.591842 0.717341
vt 0.548284 0.695147
vt 0.500000 0.687500
vt 0.451716 0.695147
vt 0.408159 0.717341
vt 0.373591 0.751909
vt 0.351397 0.795466
vt 0.343750 0.843750
vt 0.351397 0.892034
vt 0.373591 0.935591
vt 0.408159 0.970159
vt 0.451716 0.992353
vt 0.500000 1.000000
vt 0.548284 0.992353
vt 0.591841 0.970159
vt 0.626409 0.935591
vt 0.648603 0.892034
vt 0.656250 0.843750
vt 0.500000 0.150000
vt 0.500000 0.837500
vt 0.626409 0.064408
vt 0.648603 0.107966
vt 0.591842 0.029841
vt 0.548284 0.007647
vt 0.500000 -0.000000
vt 0.451716 0.007647
vt 0.408159 0.029841
vt 0.373591 0.064409
vt 0.351397 0.107966
vt 0.343750 0.156250
vt 0.351397 0.204534
vt 0.373591 0.248091
vt 0.408159 0.282659
vt 0.451716 0.304853
vt 0.500000 0.312500
vt 0.548284 0.304853
vt 0.591841 0.282659
vt 0.626409 0.248091
vt 0.648603 0.204534
vt 0.656250 0.156250
vt 0.626409 0.064408
vt 0.648603 0.107966
vt 0.591842 0.029841
vt 0.548284 0.007647
vt 0.500000 -0.000000
vt 0.451716 0.007647
vt 0.408159 0.029841
vt 0.373591 0.064409
vt 0.351397 0.107966
vt 0.343750 0.156250
vt 0.351397 0.204534
vt 0.373591 0.248091
vt 0.408159 0.282659
vt 0.451716 0.304853
vt 0.500000 0.312500
vt 0.548284 0.304853
vt 0.591841 0.282659
vt 0.626409 0.248091
vt 0.648603 0.204534
vt 0.656250 0.156250
vn -0.224167 0.926853 0.301152
vn -0.046441 0.950031 0.308683
vn -0.046441 0.808144 0.587151
vn -0.224167 0.788428 0.572827
vn -0.046441 0.587151 0.808144
vn -0.224167 0.572826 0.788428
vn -0.046441 0.308683 0.950030
vn -0.224167 0.301153 0.926853
vn -0.046441 -0.000000 0.998921
vn -0.224167 -0.000000 0.974551
vn -0.046441 -0.308684 0.950030
vn -0.224167 -0.301153 0.926853
vn -0.046441 -0.587151 0.808144
vn -0.224167 -0.572828 0.788427
vn -0.046441 -0.808144 0.587151
vn -0.224166 -0.788430 0.572824
vn -0.046441 -0.950030 0.308684
vn -0.224166 -0.926852 0.301156
vn -0.046441 -0.998921 0.000000
vn -0.224167 -0.974551 0.000003
vn -0.046441 -0.950030 -0.308684
vn -0.224167 -0.926853 -0.301153
vn -0.046441 -0.808144 -0.587151
vn -0.224167 -0.788431 -0.572822
vn -0.046441 -0.587151 -0.808144
vn -0.224168 -0.572829 -0.788426
vn -0.046441 -0.308684 -0.950030
vn -0.224168 -0.301151 -0.926853
vn -0.046441 0.000000 -0.998921
vn -0.224167 0.000000 -0.974551
vn -0.046441 0.308684 -0.950030
vn -0.224167 0.301153 -0.926853
vn -0.046441 0.587151 -0.808144
vn -0.224167 0.572828 -0.788427
vn -0.046441 0.808144 -0.587151
vn -0.224166 0.788430 -0.572824
vn -0.046441 0.950030 -0.308684
vn -0.224166 0.926852 -0.301156
vn -0.046441 0.998921 -0.000001
vn -0.224167 0.974551 -0.000004
vn 1.000000 0.000000 -0.000000
vn 1.000000 0.000000 -0.000000
vn 1.000000 0.000000 -0.000000
vn 1.000000 0.000000 -0.000000
vn 1.000000 0.000000 -0.000000
vn 1.000000 0.000000 0.000000
vn 1.000000 0.000000 0.000000
vn 1.000000 0.000000 0.000000
vn 1.000000 0.000000 0.000000
vn 1.000000 0.000000 -0.000000
vn 1.000000 0.000000 0.000000
vn 1.000000 0.000000 0.000000
vn 1.000000 0.000000 -0.000000
vn 1.000000 0.000000 -0.000000
vn 1.000000 0.000000 0.000000
vn 1.000000 0.000000 -0.000000
vn 1.000000 0.000000 -0.000000
vn 1.000000 0.000000 0.000000
vn 1.000000 0.000000 0.000000
vn 1.000000 0.000000 0.000000
vn 1.000000 0.000000 -0.000000
vn -1.000000 -0.000000 0.000000
vn -1.000000 -0.000000 0.000000
vn -1.000000 -0.000000 0.000000
vn -1.000000 -0.000000 0.000000
vn -1.000000 -0.000000 0.000000
vn -1.000000 -0.000000 0.000000
vn -1.000000 -0.000000 0.000000
vn -1.000000 -0.000000 0.000000
vn -1.000000 -0.000000 0.000000
vn -1.000000 -0.000000 0.000000
vn -1.000000 -0.000000 0.000000
vn -1.000000 -0.000000 0.000000
vn -1.000000 -0.000000 0.000000
vn -1.000000 -0.000000 0.000000
vn -1.000000 -0.000000 0.000000
vn -1.000000 -0.000000 0.000000
vn -1.000000 -0.000000 0.000000
vn -1.000000 -0.000000 0.000000
vn -1.000000 -0.000000 0.000000
vn -1.000000 -0.000000 0.000000
vn -1.000000 -0.000000 0.000000
vn -0.264860 0.780124 0.566794
vn -0.264860 0.917092 0.297980
vn -0.264860 0.566794 0.780125
vn -0.264860 0.297981 0.917091
vn -0.264860 -0.000000 0.964287
vn -0.264860 -0.297981 0.917091
vn -0.264860 -0.566796 0.780123
vn -0.264859 -0.780127 0.566791
vn -0.264858 -0.917091 0.297985
vn -0.264859 -0.964287 0.000004
vn -0.264860 -0.917091 -0.297981
vn -0.264860 -0.780128 -0.566789
vn -0.264861 -0.566797 -0.780122
vn -0.264861 -0.297979 -0.917092
vn -0.264860 -0.000000 -0.964287
vn -0.264860 0.297981 -0.917091
vn -0.264859 0.566796 -0.780123
vn -0.264859 0.780127 -0.566791
vn -0.264858 0.917091 -0.297985
vn -0.264859 0.964287 -0.000005
vn -0.595579 0.715743 0.364689
vn -0.595579 0.715743 0.364689
vn -0.595579 0.715743 0.364689
vn -0.595579 0.715743 0.364689
vn -0.595579 0.568017 0.568017
vn -0.595579 0.568017 0.568017
vn -0.595579 0.568017 0.568017
vn -0.595579 0.568017 0.568017
vn -0.595579 0.364689 0.715743
vn -0.595579 0.364689 0.715743
vn -0.595579 0.364689 0.715743
vn -0.595579 0.364689 0.715743
vn -0.595579 0.125663 0.793407
vn -0.595579 0.125663 0.793407
vn -0.595579 0.125663 0.793407
vn -0.595579 0.125663 0.793407
vn -0.595579 -0.125663 0.793407
vn -0.595579 -0.125663 0.793407
vn -0.595579 -0.125663 0.793407
vn -0.595579 -0.125663 0.793407
vn -0.595579 -0.364690 0.715743
vn -0.595579 -0.364690 0.715743
vn -0.595579 -0.364690 0.715743
vn -0.595579 -0.364690 0.715743
vn -0.595578 -0.568022 0.568012
vn -0.595578 -0.568022 0.568012
vn -0.595578 -0.568022 0.568012
vn -0.595578 -0.568022 0.568012
vn -0.595577 -0.715744 0.364690
vn -0.595577 -0.715744 0.364690
vn -0.595577 -0.715744 0.364690
vn -0.595577 -0.715744 0.364690
vn -0.595578 -0.793406 0.125672
vn -0.595578 -0.793406 0.125672
vn -0.595578 -0.793406 0.125672
vn -0.595578 -0.793406 0.125672
vn -0.595579 -0.793407 -0.125663
vn -0.595579 -0.793407 -0.125663
vn -0.595579 -0.793407 -0.125663
vn -0.595579 -0.793407 -0.125663
vn -0.595579 -0.715743 -0.364689
vn -0.595579 -0.715743 -0.364689
vn -0.595579 -0.715743 -0.364689
vn -0.595579 -0.715743 -0.364689
vn -0.595580 -0.568026 -0.568007
vn -0.595580 -0.568026 -0.568007
vn -0.595580 -0.568026 -0.568007
vn -0.595580 -0.568026 -0.568007
vn -0.595580 -0.364689 -0.715742
vn -0.595580 -0.364689 -0.715742
vn -0.595580 -0.364689 -0.715742
vn -0.595580 -0.364689 -0.715742
vn -0.595579 -0.125660 -0.793407
vn -0.595579 -0.125660 -0.793407
vn -0.595579 -0.125660 -0.793407
vn -0.595579 -0.125660 -0.793407
vn -0.595579 0.125663 -0.793407
vn -0.595579 0.125663 -0.793407
vn -0.595579 0.125663 -0.793407
vn -0.595579 0.125663 -0.793407
vn -0.595579 0.364690 -0.715743
vn -0.595579 0.364690 -0.715743
vn -0.595579 0.364690 -0.715743
vn -0.595579 0.364690 -0.715743
vn -0.595578 0.568022 -0.568012
vn -0.595578 0.568022 -0.568012
vn -0.595578 0.568022 -0.568012
vn -0.595578 0.568022 -0.568012
vn -0.595577 0.715744 -0.364690
vn -0.595577 0.715744 -0.364690
vn -0.595577 0.715744 -0.364690
vn -0.595577 0.715744 -0.364690
vn -0.595578 0.793406 -0.125672
vn -0.595578 0.793406 -0.125672
vn -0.595578 0.793406 -0.125672
vn -0.595578 0.793406 -0.125672
vn -0.595579 0.793407 0.125662
vn -0.595579 0.793407 0.125662
vn -0.595579 0.793407 0.125662
vn -0.595579 0.793407 0.125662
s 1
g pCylinder1
usemtl initialShadingGroup
f 1/21/1 21/42/2 22/43/3 2/22/4
f 2/22/4 22/43/3 23/44/5 3/23/6
f 3/23/6 23/44/5 24/45/7 4/24/8
f 4/24/8 24/45/7 25/46/9 5/25/10
f 5/25/10 25/46/9 26/47/11 6/26/12
f 6/26/12 26/47/11 27/48/13 7/27/14
f 7/27/14 27/48/13 28/49/15 8/28/16
f 8/28/16 28/49/15 29/50/17 9/29/18
f 9/29/18 29/50/17 30/51/19 10/30/20
f 10/30/20 30/51/19 31/52/21 11/31/22
f 11/31/22 31/52/21 32/53/23 12/32/24
f 12/32/24 32/53/23 33/54/25 13/33/26
f 13/33/26 33/54/25 34/55/27 14/34/28
f 14/34/28 34/55/27 35/56/29 15/35/30
f 15/35/30 35/56/29 36/57/31 16/36/32
f 16/36/32 36/57/31 37/58/33 17/37/34
f 17/37/34 37/58/33 38/59/35 18/38/36
f 18/38/36 38/59/35 39/60/37 19/39/38
f 19/39/38 39/60/37 40/61/39 20/40/40
f 20/40/40 40/61/39 21/62/2 1/41/1
s 2
f 63/105/41 64/83/42 62/106/43
f 65/107/44 64/83/42 63/105/41
f 66/108/45 64/83/42 65/107/44
f 67/109/46 64/83/42 66/108/45
f 68/110/47 64/83/42 67/109/46
f 69/111/48 64/83/42 68/110/47
f 70/112/49 64/83/42 69/111/48
f 71/113/50 64/83/42 70/112/49
f 72/114/51 64/83/42 71/113/50
f 73/115/52 64/83/42 72/114/51
f 74/116/53 64/83/42 73/115/52
f 75/117/54 64/83/42 74/116/53
f 76/118/55 64/83/42 75/117/54
f 77/119/56 64/83/42 76/118/55
f 78/120/57 64/83/42 77/119/56
f 79/121/58 64/83/42 78/120/57
f 80/122/59 64/83/42 79/121/58
f 81/123/60 64/83/42 80/122/59
f 82/124/61 64/83/42 81/123/60
f 62/106/43 64/83/42 82/124/61
s 3
f 21/81/62 41/84/63 22/80/64
f 22/80/64 41/84/63 23/79/65
f 23/79/65 41/84/63 24/78/66
f 24/78/66 41/84/63 25/77/67
f 25/77/67 41/84/63 26/76/68
f 26/76/68 41/84/63 27/75/69
f 27/75/69 41/84/63 28/74/70
f 28/74/70 41/84/63 29/73/71
f 29/73/71 41/84/63 30/72/72
f 30/72/72 41/84/63 31/71/73
f 31/71/73 41/84/63 32/70/74
f 32/70/74 41/84/63 33/69/75
f 33/69/75 41/84/63 34/68/76
f 34/68/76 41/84/63 35/67/77
f 35/67/77 41/84/63 36/66/78
f 36/66/78 41/84/63 37/65/79
f 37/65/79 41/84/63 38/64/80
f 38/64/80 41/84/63 39/63/81
f 39/63/81 41/84/63 40/82/82
f 40/82/82 41/84/63 21/81/62
s 1
f 2/2/4 43/85/83 42/86/84 1/1/1
f 3/3/6 44/87/85 43/85/83 2/2/4
f 4/4/8 45/88/86 44/87/85 3/3/6
f 5/5/10 46/89/87 45/88/86 4/4/8
f 6/6/12 47/90/88 46/89/87 5/5/10
f 7/7/14 48/91/89 47/90/88 6/6/12
f 8/8/16 49/92/90 48/91/89 7/7/14
f 9/9/18 50/93/91 49/92/90 8/8/16
f 10/10/20 51/94/92 50/93/91 9/9/18
f 11/11/22 52/95/93 51/94/92 10/10/20
f 12/12/24 53/96/94 52/95/93 11/11/22
f 13/13/26 54/97/95 53/96/94 12/12/24
f 14/14/28 55/98/96 54/97/95 13/13/26
f 15/15/30 56/99/97 55/98/96 14/14/28
f 16/16/32 57/100/98 56/99/97 15/15/30
f 17/17/34 58/101/99 57/100/98 16/16/32
f 18/18/36 59/102/100 58/101/99 17/17/34
f 19/19/38 60/103/101 59/102/100 18/18/36
f 20/20/40 61/104/102 60/103/101 19/19/38
f 1/1/1 42/86/84 61/104/102 20/20/40
s off
f 43/85/103 63/105/104 62/106/105 42/86/106
f 44/87/107 65/107/108 63/105/109 43/85/110
f 45/88/111 66/108/112 65/107/113 44/87/114
f 46/89/115 67/109/116 66/108/117 45/88/118
f 47/90/119 68/110/120 67/109/121 46/89/122
f 48/91/123 69/111/124 68/110/125 47/90/126
f 49/92/127 70/112/128 69/111/129 48/91/130
f 50/93/131 71/113/132 70/112/133 49/92/134
f 51/94/135 72/114/136 71/113/137 50/93/138
f 52/95/139 73/115/140 72/114/141 51/94/142
f 53/96/143 74/116/144 73/115/145 52/95/146
f 54/97/147 75/117/148 74/116/149 53/96/150
f 55/98/151 76/118/152 75/117/153 54/97/154
f 56/99/155 77/119/156 76/118/157 55/98/158
f 57/100/159 78/120/160 77/119/161 56/99/162
f 58/101/163 79/121/164 78/120/165 57/100/166
f 59/102/167 80/122/168 79/121/169 58/101/170
f 60/103/171 81/123/172 80/122/173 59/102/174
f 61/104/175 82/124/176 81/123/177 60/103/178
f 42/86/179 62/106/180 82/124/181 61/104/182
