# This file uses centimeters as units for non-parametric coordinates.

mtllib tinySkybox_04.mtl
g default
v 6.742974 -0.723563 -0.235100
v 6.742974 -0.615500 -0.447187
v 6.742974 -0.447186 -0.615500
v 6.742974 -0.235100 -0.723563
v 6.742974 0.000000 -0.760799
v 6.742974 0.235100 -0.723563
v 6.742974 0.447187 -0.615499
v 6.742974 0.615499 -0.447187
v 6.742974 0.723563 -0.235100
v 6.742974 0.760799 -0.000000
v 6.742974 0.723563 0.235100
v 6.742974 0.615499 0.447186
v 6.742974 0.447187 0.615499
v 6.742974 0.235100 0.723563
v 6.742974 0.000000 0.760799
v 6.742974 -0.235100 0.723563
v 6.742974 -0.447186 0.615499
v 6.742974 -0.615499 0.447186
v 6.742974 -0.723563 0.235100
v 6.742974 -0.760799 -0.000000
v 8.135128 -0.662008 -0.215100
v 8.135128 -0.563138 -0.409144
v 8.135128 -0.409144 -0.563138
v 8.135128 -0.215100 -0.662009
v 8.135128 0.000000 -0.696077
v 8.135128 0.215100 -0.662008
v 8.135128 0.409144 -0.563138
v 8.135128 0.563138 -0.409144
v 8.135128 0.662008 -0.215100
v 8.135128 0.696077 -0.000000
v 8.135128 0.662008 0.215099
v 8.135128 0.563138 0.409144
v 8.135128 0.409144 0.563138
v 8.135128 0.215100 0.662008
v 8.135128 0.000000 0.696077
v 8.135128 -0.215099 0.662008
v 8.135128 -0.409144 0.563138
v 8.135128 -0.563138 0.409144
v 8.135128 -0.662008 0.215099
v 8.135128 -0.696077 -0.000000
v 2.385407 -1.194644 -0.388164
v 2.385407 -1.016226 -0.738331
v 2.385407 -0.738331 -1.016226
v 2.385407 -0.388163 -1.194644
v 2.385407 -0.000000 -1.256123
v 2.385407 0.388164 -1.194644
v 2.385407 0.738331 -1.016225
v 2.385407 1.016220 -0.738331
v 2.385407 1.194639 -0.388163
v 2.385407 1.256123 0.000000
v 2.385407 1.194644 0.388163
v 2.385407 1.016225 0.738331
v 2.385407 0.738340 1.016225
v 2.385407 0.388172 1.194644
v 2.385407 0.000000 1.256123
v 2.385407 -0.388163 1.194644
v 2.385407 -0.738331 1.016225
v 2.385407 -1.016219 0.738331
v 2.385407 -1.194639 0.388163
v 2.385407 -1.256123 0.000000
v -2.654974 -5.889289 -1.913545
v -2.654974 -5.009727 -3.639779
v -2.654974 0.000004 0.000001
v -2.654974 -3.639780 -5.009727
v -2.654974 -1.913546 -5.889287
v -2.654974 -0.000001 -6.192362
v -2.654974 1.913545 -5.889286
v -2.654974 3.639779 -5.009725
v -2.654974 5.009702 -3.639778
v -2.654974 5.889263 -1.913544
v -2.654974 6.192361 0.000001
v -2.654974 5.889285 1.913545
v -2.654974 5.009725 3.639779
v -2.654974 3.639824 5.009726
v -2.654974 1.913589 5.889286
v -2.654974 -0.000000 6.192361
v -2.654974 -1.913545 5.889286
v -2.654974 -3.639778 5.009725
v -2.654974 -5.009702 3.639779
v -2.654974 -5.889263 1.913545
v -2.654974 -6.192360 0.000001
v 0.034433 -5.590237 -1.816377
v 0.034433 -4.755340 -3.454956
v 0.034433 -3.454957 -4.755339
v 0.034433 -1.816379 -5.590236
v 0.034433 -0.000001 -5.877922
v 0.034433 1.816377 -5.590236
v 0.034433 3.454956 -4.755337
v 0.034433 4.755316 -3.454955
v 0.034433 5.590214 -1.816376
v 0.034433 5.877921 0.000001
v 0.034433 5.590234 1.816378
v 0.034433 4.755336 3.454956
v 0.034433 3.454998 4.755337
v 0.034433 1.816419 5.590235
v 0.034433 -0.000000 5.877922
v 0.034433 -1.816377 5.590235
v 0.034433 -3.454956 4.755337
v 0.034433 -4.755315 3.454956
v 0.034433 -5.590214 1.816377
v 0.034433 -5.877921 0.000001
vt 0.648603 0.107966
vt 0.626409 0.064408
vt 0.591842 0.029841
vt 0.548284 0.007647
vt 0.500000 -0.000000
vt 0.451716 0.007647
vt 0.408159 0.029841
vt 0.373591 0.064409
vt 0.351397 0.107966
vt 0.343750 0.156250
vt 0.351397 0.204534
vt 0.373591 0.248091
vt 0.408159 0.282659
vt 0.451716 0.304853
vt 0.500000 0.312500
vt 0.548284 0.304853
vt 0.591841 0.282659
vt 0.626409 0.248091
vt 0.648603 0.204534
vt 0.656250 0.156250
vt 0.375000 0.312500
vt 0.387500 0.312500
vt 0.400000 0.312500
vt 0.412500 0.312500
vt 0.425000 0.312500
vt 0.437500 0.312500
vt 0.450000 0.312500
vt 0.462500 0.312500
vt 0.475000 0.312500
vt 0.487500 0.312500
vt 0.500000 0.312500
vt 0.512500 0.312500
vt 0.525000 0.312500
vt 0.537500 0.312500
vt 0.550000 0.312500
vt 0.562500 0.312500
vt 0.575000 0.312500
vt 0.587500 0.312500
vt 0.600000 0.312500
vt 0.612500 0.312500
vt 0.625000 0.312500
vt 0.375000 0.688440
vt 0.387500 0.688440
vt 0.400000 0.688440
vt 0.412500 0.688440
vt 0.425000 0.688440
vt 0.437500 0.688440
vt 0.450000 0.688440
vt 0.462500 0.688440
vt 0.475000 0.688440
vt 0.487500 0.688440
vt 0.500000 0.688440
vt 0.512500 0.688440
vt 0.525000 0.688440
vt 0.537500 0.688440
vt 0.550000 0.688440
vt 0.562500 0.688440
vt 0.575000 0.688440
vt 0.587500 0.688440
vt 0.600000 0.688440
vt 0.612500 0.688440
vt 0.625000 0.688440
vt 0.500000 0.150000
vt 0.626409 0.064408
vt 0.648603 0.107966
vt 0.591842 0.029841
vt 0.548284 0.007647
vt 0.500000 -0.000000
vt 0.451716 0.007647
vt 0.408159 0.029841
vt 0.373591 0.064409
vt 0.351397 0.107966
vt 0.343750 0.156250
vt 0.351397 0.204534
vt 0.373591 0.248091
vt 0.408159 0.282659
vt 0.451716 0.304853
vt 0.500000 0.312500
vt 0.548284 0.304853
vt 0.591841 0.282659
vt 0.626409 0.248091
vt 0.648603 0.204534
vt 0.656250 0.156250
vt 0.626409 0.064408
vt 0.648603 0.107966
vt 0.591842 0.029841
vt 0.548284 0.007647
vt 0.500000 -0.000000
vt 0.451716 0.007647
vt 0.408159 0.029841
vt 0.373591 0.064409
vt 0.351397 0.107966
vt 0.343750 0.156250
vt 0.351397 0.204534
vt 0.373591 0.248091
vt 0.408159 0.282659
vt 0.451716 0.304853
vt 0.500000 0.312500
vt 0.548284 0.304853
vt 0.591841 0.282659
vt 0.626409 0.248091
vt 0.648603 0.204534
vt 0.656250 0.156250
vt 0.648603 0.107966
vt 0.626409 0.064408
vt 0.591841 0.029841
vt 0.548284 0.007647
vt 0.500000 -0.000000
vt 0.451716 0.007647
vt 0.408158 0.029841
vt 0.373591 0.064409
vt 0.351397 0.107966
vt 0.343750 0.156250
vt 0.351397 0.204534
vt 0.373591 0.248091
vt 0.408159 0.282659
vt 0.451716 0.304853
vt 0.500000 0.312500
vt 0.548284 0.304853
vt 0.591841 0.282659
vt 0.626409 0.248091
vt 0.648603 0.204534
vt 0.656250 0.156250
vn -0.100720 0.946221 0.307444
vn -0.046441 0.950031 0.308683
vn -0.046441 0.808144 0.587151
vn -0.100720 0.804904 0.584796
vn -0.046441 0.587151 0.808144
vn -0.100720 0.584796 0.804904
vn -0.046441 0.308683 0.950031
vn -0.100720 0.307445 0.946221
vn -0.046441 -0.000000 0.998921
vn -0.100720 -0.000000 0.994915
vn -0.046441 -0.308684 0.950030
vn -0.100720 -0.307446 0.946220
vn -0.046441 -0.587151 0.808144
vn -0.100720 -0.584798 0.804902
vn -0.046441 -0.808144 0.587151
vn -0.100719 -0.804905 0.584794
vn -0.046441 -0.950031 0.308683
vn -0.100719 -0.946219 0.307449
vn -0.046441 -0.998921 0.000000
vn -0.100720 -0.994915 0.000003
vn -0.046441 -0.950030 -0.308684
vn -0.100720 -0.946220 -0.307446
vn -0.046441 -0.808144 -0.587151
vn -0.100720 -0.804906 -0.584792
vn -0.046441 -0.587151 -0.808144
vn -0.100721 -0.584799 -0.804901
vn -0.046441 -0.308683 -0.950031
vn -0.100721 -0.307443 -0.946221
vn -0.046441 0.000000 -0.998921
vn -0.100720 0.000000 -0.994915
vn -0.046441 0.308684 -0.950030
vn -0.100720 0.307445 -0.946220
vn -0.046441 0.587151 -0.808144
vn -0.100720 0.584798 -0.804902
vn -0.046441 0.808144 -0.587151
vn -0.100720 0.804905 -0.584794
vn -0.046441 0.950031 -0.308684
vn -0.100720 0.946219 -0.307449
vn -0.046441 0.998921 -0.000001
vn -0.100720 0.994915 -0.000003
vn 1.000000 0.000000 -0.000000
vn 1.000000 0.000000 -0.000000
vn 1.000000 0.000000 -0.000000
vn 1.000000 0.000000 -0.000000
vn 1.000000 0.000000 -0.000000
vn 1.000000 0.000000 0.000000
vn 1.000000 0.000000 0.000000
vn 1.000000 0.000000 0.000000
vn 1.000000 0.000000 0.000000
vn 1.000000 0.000000 -0.000000
vn 1.000000 0.000000 0.000000
vn 1.000000 0.000000 0.000000
vn 1.000000 0.000000 -0.000000
vn 1.000000 0.000000 -0.000000
vn 1.000000 0.000000 0.000000
vn 1.000000 0.000000 -0.000000
vn 1.000000 0.000000 -0.000000
vn 1.000000 0.000000 0.000000
vn 1.000000 0.000000 0.000000
vn 1.000000 0.000000 0.000000
vn 1.000000 0.000000 -0.000000
vn -0.112943 0.803841 0.584024
vn -0.112943 0.944972 0.307038
vn -0.112943 0.584024 0.803841
vn -0.112943 0.307039 0.944972
vn -0.112943 -0.000000 0.993602
vn -0.112943 -0.307040 0.944971
vn -0.112942 -0.584026 0.803839
vn -0.112942 -0.803843 0.584022
vn -0.112942 -0.944970 0.307044
vn -0.112942 -0.993602 0.000003
vn -0.112943 -0.944971 -0.307040
vn -0.112943 -0.803844 -0.584019
vn -0.112943 -0.584027 -0.803838
vn -0.112943 -0.307037 -0.944972
vn -0.112943 -0.000000 -0.993602
vn -0.112943 0.307040 -0.944971
vn -0.112942 0.584026 -0.803839
vn -0.112942 0.803842 -0.584022
vn -0.112942 0.944970 -0.307044
vn -0.112942 0.993602 -0.000004
vn -0.570906 0.731530 0.372733
vn -0.570906 0.731530 0.372733
vn -0.114716 0.885124 0.450994
vn -0.114716 0.885124 0.450994
vn -0.570906 0.580546 0.580545
vn -0.570906 0.580546 0.580545
vn -0.114716 0.702439 0.702439
vn -0.114716 0.702439 0.702439
vn -0.570906 0.372733 0.731530
vn -0.570906 0.372733 0.731530
vn -0.114716 0.450993 0.885124
vn -0.114716 0.450993 0.885124
vn -0.570906 0.128435 0.810907
vn -0.570906 0.128435 0.810907
vn -0.114716 0.155401 0.981168
vn -0.114716 0.155401 0.981168
vn -0.570906 -0.128435 0.810907
vn -0.570906 -0.128435 0.810907
vn -0.114716 -0.155402 0.981168
vn -0.114716 -0.155402 0.981168
vn -0.570906 -0.372734 0.731530
vn -0.570906 -0.372734 0.731530
vn -0.114716 -0.450994 0.885124
vn -0.114716 -0.450994 0.885124
vn -0.570904 -0.580552 0.580542
vn -0.570907 -0.580550 0.580540
vn -0.114716 -0.702445 0.702433
vn -0.114716 -0.702445 0.702433
vn -0.570905 -0.731531 0.372734
vn -0.570905 -0.731531 0.372734
vn -0.114716 -0.885124 0.450994
vn -0.114716 -0.885124 0.450994
vn -0.570907 -0.810906 0.128444
vn -0.570903 -0.810908 0.128444
vn -0.114716 -0.981166 0.155413
vn -0.114716 -0.981166 0.155413
vn -0.570906 -0.810908 -0.128435
vn -0.570906 -0.810907 -0.128435
vn -0.114716 -0.981168 -0.155402
vn -0.114716 -0.981168 -0.155402
vn -0.570906 -0.731530 -0.372733
vn -0.570906 -0.731530 -0.372733
vn -0.114717 -0.885124 -0.450993
vn -0.114717 -0.885124 -0.450993
vn -0.570909 -0.580554 -0.580534
vn -0.570905 -0.580555 -0.580536
vn -0.114717 -0.702450 -0.702427
vn -0.114717 -0.702450 -0.702427
vn -0.570906 -0.372733 -0.731530
vn -0.570908 -0.372733 -0.731529
vn -0.114717 -0.450994 -0.885124
vn -0.114717 -0.450994 -0.885124
vn -0.570905 -0.128432 -0.810909
vn -0.570907 -0.128432 -0.810907
vn -0.114716 -0.155398 -0.981169
vn -0.114716 -0.155398 -0.981169
vn -0.570906 0.128435 -0.810907
vn -0.570906 0.128435 -0.810907
vn -0.114716 0.155402 -0.981168
vn -0.114716 0.155402 -0.981168
vn -0.570906 0.372733 -0.731530
vn -0.570906 0.372733 -0.731530
vn -0.114716 0.450994 -0.885124
vn -0.114716 0.450994 -0.885124
vn -0.570904 0.580551 -0.580542
vn -0.570907 0.580550 -0.580540
vn -0.114716 0.702444 -0.702433
vn -0.114716 0.702444 -0.702433
vn -0.570904 0.731531 -0.372734
vn -0.570905 0.731531 -0.372734
vn -0.114716 0.885124 -0.450994
vn -0.114716 0.885124 -0.450994
vn -0.570907 0.810905 -0.128444
vn -0.570903 0.810908 -0.128445
vn -0.114716 0.981166 -0.155413
vn -0.114716 0.981166 -0.155413
vn -0.570906 0.810907 0.128434
vn -0.570906 0.810908 0.128434
vn -0.114716 0.981168 0.155400
vn -0.114716 0.981168 0.155400
vn -0.889025 0.407955 0.207863
vn -0.889025 0.407955 0.207863
vn -0.889025 0.323755 0.323755
vn -0.889025 0.323755 0.323755
vn -0.889025 0.207863 0.407955
vn -0.889025 0.207863 0.407955
vn -0.889025 0.071625 0.452221
vn -0.889025 0.071625 0.452221
vn -0.889025 -0.071625 0.452221
vn -0.889025 -0.071625 0.452221
vn -0.889025 -0.207864 0.407955
vn -0.889025 -0.207864 0.407955
vn -0.889025 -0.323758 0.323752
vn -0.889025 -0.323758 0.323752
vn -0.889024 -0.407956 0.207864
vn -0.889024 -0.407956 0.207864
vn -0.889025 -0.452221 0.071630
vn -0.889025 -0.452221 0.071630
vn -0.889025 -0.452221 -0.071625
vn -0.889025 -0.452221 -0.071625
vn -0.889025 -0.407955 -0.207863
vn -0.889025 -0.407955 -0.207863
vn -0.889026 -0.323759 -0.323749
vn -0.889026 -0.323759 -0.323749
vn -0.889026 -0.207863 -0.407954
vn -0.889026 -0.207863 -0.407954
vn -0.889025 -0.071623 -0.452221
vn -0.889025 -0.071623 -0.452221
vn -0.889025 0.071625 -0.452221
vn -0.889025 0.071625 -0.452221
vn -0.889025 0.207863 -0.407955
vn -0.889025 0.207863 -0.407955
vn -0.889025 0.323758 -0.323752
vn -0.889025 0.323758 -0.323752
vn -0.889025 0.407956 -0.207864
vn -0.889025 0.407956 -0.207864
vn -0.889025 0.452221 -0.071631
vn -0.889025 0.452221 -0.071631
vn -0.889025 0.452221 0.071625
vn -0.889025 0.452221 0.071625
s 1
g pCylinder1
usemtl initialShadingGroup
f 1/21/1 21/42/2 22/43/3 2/22/4
f 2/22/4 22/43/3 23/44/5 3/23/6
f 3/23/6 23/44/5 24/45/7 4/24/8
f 4/24/8 24/45/7 25/46/9 5/25/10
f 5/25/10 25/46/9 26/47/11 6/26/12
f 6/26/12 26/47/11 27/48/13 7/27/14
f 7/27/14 27/48/13 28/49/15 8/28/16
f 8/28/16 28/49/15 29/50/17 9/29/18
f 9/29/18 29/50/17 30/51/19 10/30/20
f 10/30/20 30/51/19 31/52/21 11/31/22
f 11/31/22 31/52/21 32/53/23 12/32/24
f 12/32/24 32/53/23 33/54/25 13/33/26
f 13/33/26 33/54/25 34/55/27 14/34/28
f 14/34/28 34/55/27 35/56/29 15/35/30
f 15/35/30 35/56/29 36/57/31 16/36/32
f 16/36/32 36/57/31 37/58/33 17/37/34
f 17/37/34 37/58/33 38/59/35 18/38/36
f 18/38/36 38/59/35 39/60/37 19/39/38
f 19/39/38 39/60/37 40/61/39 20/40/40
f 20/40/40 40/61/39 21/62/2 1/41/1
s 2
f 62/84/41 63/63/42 61/85/43
f 64/86/44 63/63/42 62/84/41
f 65/87/45 63/63/42 64/86/44
f 66/88/46 63/63/42 65/87/45
f 67/89/47 63/63/42 66/88/46
f 68/90/48 63/63/42 67/89/47
f 69/91/49 63/63/42 68/90/48
f 70/92/50 63/63/42 69/91/49
f 71/93/51 63/63/42 70/92/50
f 72/94/52 63/63/42 71/93/51
f 73/95/53 63/63/42 72/94/52
f 74/96/54 63/63/42 73/95/53
f 75/97/55 63/63/42 74/96/54
f 76/98/56 63/63/42 75/97/55
f 77/99/57 63/63/42 76/98/56
f 78/100/58 63/63/42 77/99/57
f 79/101/59 63/63/42 78/100/58
f 80/102/60 63/63/42 79/101/59
f 81/103/61 63/63/42 80/102/60
f 61/85/43 63/63/42 81/103/61
s 1
f 2/2/4 42/64/62 41/65/63 1/1/1
f 3/3/6 43/66/64 42/64/62 2/2/4
f 4/4/8 44/67/65 43/66/64 3/3/6
f 5/5/10 45/68/66 44/67/65 4/4/8
f 6/6/12 46/69/67 45/68/66 5/5/10
f 7/7/14 47/70/68 46/69/67 6/6/12
f 8/8/16 48/71/69 47/70/68 7/7/14
f 9/9/18 49/72/70 48/71/69 8/8/16
f 10/10/20 50/73/71 49/72/70 9/9/18
f 11/11/22 51/74/72 50/73/71 10/10/20
f 12/12/24 52/75/73 51/74/72 11/11/22
f 13/13/26 53/76/74 52/75/73 12/12/24
f 14/14/28 54/77/75 53/76/74 13/13/26
f 15/15/30 55/78/76 54/77/75 14/14/28
f 16/16/32 56/79/77 55/78/76 15/15/30
f 17/17/34 57/80/78 56/79/77 16/16/32
f 18/18/36 58/81/79 57/80/78 17/17/34
f 19/19/38 59/82/80 58/81/79 18/18/36
f 20/20/40 60/83/81 59/82/80 19/19/38
f 1/1/1 41/65/63 60/83/81 20/20/40
s 3
f 82/104/82 83/105/83 62/84/84 61/85/85
s 4
f 83/105/86 84/106/87 64/86/88 62/84/89
s 5
f 84/106/90 85/107/91 65/87/92 64/86/93
s 6
f 85/107/94 86/108/95 66/88/96 65/87/97
s 7
f 86/108/98 87/109/99 67/89/100 66/88/101
s 8
f 87/109/102 88/110/103 68/90/104 67/89/105
s 9
f 88/110/106 89/111/107 69/91/108 68/90/109
s 10
f 89/111/110 90/112/111 70/92/112 69/91/113
s 11
f 90/112/114 91/113/115 71/93/116 70/92/117
s 12
f 91/113/118 92/114/119 72/94/120 71/93/121
s 13
f 92/114/122 93/115/123 73/95/124 72/94/125
s 14
f 93/115/126 94/116/127 74/96/128 73/95/129
s 15
f 94/116/130 95/117/131 75/97/132 74/96/133
s 16
f 95/117/134 96/118/135 76/98/136 75/97/137
s 17
f 96/118/138 97/119/139 77/99/140 76/98/141
s 18
f 97/119/142 98/120/143 78/100/144 77/99/145
s 19
f 98/120/146 99/121/147 79/101/148 78/100/149
s 20
f 99/121/150 100/122/151 80/102/152 79/101/153
s 21
f 100/122/154 101/123/155 81/103/156 80/102/157
s 22
f 101/123/158 82/104/159 61/85/160 81/103/161
s 3
f 42/64/162 83/105/83 82/104/82 41/65/163
s 4
f 43/66/164 84/106/87 83/105/86 42/64/165
s 5
f 44/67/166 85/107/91 84/106/90 43/66/167
s 6
f 45/68/168 86/108/95 85/107/94 44/67/169
s 7
f 46/69/170 87/109/99 86/108/98 45/68/171
s 8
f 47/70/172 88/110/103 87/109/102 46/69/173
s 9
f 48/71/174 89/111/107 88/110/106 47/70/175
s 10
f 49/72/176 90/112/111 89/111/110 48/71/177
s 11
f 50/73/178 91/113/115 90/112/114 49/72/179
s 12
f 51/74/180 92/114/119 91/113/118 50/73/181
s 13
f 52/75/182 93/115/123 92/114/122 51/74/183
s 14
f 53/76/184 94/116/127 93/115/126 52/75/185
s 15
f 54/77/186 95/117/131 94/116/130 53/76/187
s 16
f 55/78/188 96/118/135 95/117/134 54/77/189
s 17
f 56/79/190 97/119/139 96/118/138 55/78/191
s 18
f 57/80/192 98/120/143 97/119/142 56/79/193
s 19
f 58/81/194 99/121/147 98/120/146 57/80/195
s 20
f 59/82/196 100/122/151 99/121/150 58/81/197
s 21
f 60/83/198 101/123/155 100/122/154 59/82/199
s 22
f 41/65/200 82/104/159 101/123/158 60/83/201
