# This file uses centimeters as units for non-parametric coordinates.

mtllib vfxCylinder_01.mtl
g default
v 1.001254 -0.455095 -0.372654
v 0.859214 -0.455095 -0.651423
v 0.637982 -0.455095 -0.872654
v 0.359214 -0.455095 -1.014694
v 0.050197 -0.455095 -1.063638
v -0.258821 -0.455095 -1.014694
v -0.537589 -0.455095 -0.872654
v -0.758821 -0.455095 -0.651422
v -0.900860 -0.455095 -0.372654
v -0.949804 -0.455095 -0.063637
v -0.900860 -0.455095 0.245380
v -0.758821 -0.455095 0.524149
v -0.537589 -0.455095 0.745381
v -0.258820 -0.455095 0.887420
v 0.050197 -0.455095 0.936363
v 0.359214 -0.455095 0.887420
v 0.637982 -0.455095 0.745380
v 0.859214 -0.455095 0.524149
v 1.001253 -0.455095 0.245380
v 1.050197 -0.455095 -0.063637
v 0.991776 1.600472 -0.369575
v 0.851152 1.600471 -0.645565
v 0.632125 1.600471 -0.864592
v 0.356134 1.600472 -1.005216
v 0.050197 1.600472 -1.053672
v -0.255741 1.600472 -1.005216
v -0.531731 1.600471 -0.864592
v -0.750759 1.600471 -0.645565
v -0.891383 1.600472 -0.369574
v -0.939838 1.600471 -0.063637
v -0.891383 1.600472 0.242301
v -0.750759 1.600472 0.518291
v -0.531731 1.600471 0.737319
v -0.255741 1.600471 0.877943
v 0.050197 1.600471 0.926399
v 0.356134 1.600471 0.877943
v 0.632124 1.600471 0.737318
v 0.851152 1.600472 0.518291
v 0.991776 1.600472 0.242301
v 1.040231 1.600471 -0.063637
v 0.873363 3.906598 -0.331100
v 0.750424 3.906598 -0.572382
v 0.558942 3.906598 -0.763864
v 0.317660 3.906599 -0.886803
v 0.050197 3.906599 -0.929165
v -0.217267 3.906599 -0.886803
v -0.458548 3.906598 -0.763864
v -0.650030 3.906598 -0.572381
v -0.772970 3.906598 -0.331100
v -0.815332 3.906598 -0.063637
v -0.772970 3.906599 0.203826
v -0.650030 3.906599 0.445108
v -0.458548 3.906599 0.636591
v -0.217267 3.906599 0.759530
v 0.050197 3.906598 0.801892
v 0.317661 3.906599 0.759530
v 0.558941 3.906599 0.636591
v 0.750423 3.906599 0.445108
v 0.873363 3.906599 0.203826
v 0.915725 3.906598 -0.063637
v 0.564965 7.565600 -0.230891
v 0.488084 7.565601 -0.381777
v 0.368342 7.565601 -0.501520
v 0.217458 7.565601 -0.578400
v 0.050196 7.565601 -0.604891
v -0.117063 7.565601 -0.578400
v -0.267948 7.565601 -0.501520
v -0.387692 7.565601 -0.381777
v -0.464572 7.565600 -0.230890
v -0.491063 7.565600 -0.063633
v -0.464572 7.565600 0.103626
v -0.387691 7.565600 0.254512
v -0.267947 7.565600 0.374256
v -0.117063 7.565600 0.451137
v 0.050196 7.565600 0.477628
v 0.217454 7.565600 0.451137
v 0.368340 7.565600 0.374256
v 0.488084 7.565600 0.254512
v 0.564965 7.565600 0.103626
v 0.591456 7.565600 -0.063633
v 0.335070 10.140107 -0.156184
v 0.292522 10.140107 -0.239684
v 0.226257 10.140106 -0.305950
v 0.142758 10.140107 -0.348495
v 0.050196 10.140107 -0.363155
v -0.042365 10.140106 -0.348495
v -0.125864 10.140107 -0.305950
v -0.192130 10.140107 -0.239684
v -0.234677 10.140107 -0.156184
v -0.249336 10.140106 -0.063625
v -0.234676 10.140106 0.028935
v -0.192129 10.140106 0.112435
v -0.125863 10.140106 0.178701
v -0.042363 10.140106 0.221246
v 0.050196 10.140106 0.235907
v 0.142754 10.140106 0.221246
v 0.226254 10.140106 0.178701
v 0.292520 10.140106 0.112436
v 0.335068 10.140106 0.028935
v 0.349728 10.140106 -0.063626
vt 0.800016 0.000000
vt 0.850016 0.000000
vt 0.850016 0.194009
vt 0.800016 0.194009
vt 0.900016 0.000000
vt 0.900016 0.194009
vt 0.950016 0.194009
vt 0.000016 0.000000
vt 0.000016 0.194009
vt 0.050016 0.000000
vt 0.050016 0.194009
vt 0.100016 0.000000
vt 0.100016 0.194009
vt 0.150016 0.000000
vt 0.150016 0.194009
vt 0.200016 0.000000
vt 0.200016 0.194009
vt 0.250016 0.000000
vt 0.250016 0.194009
vt 0.300016 0.000000
vt 0.300016 0.194009
vt 0.350016 0.000000
vt 0.350016 0.194009
vt 0.400016 0.000000
vt 0.400016 0.194009
vt 0.450016 0.000000
vt 0.450016 0.194009
vt 0.500016 0.000000
vt 0.500016 0.194009
vt 0.550016 0.000000
vt 0.550016 0.194009
vt 0.600016 0.000000
vt 0.600016 0.194009
vt 0.650016 0.000000
vt 0.650016 0.194009
vt 0.700016 0.000000
vt 0.700016 0.194009
vt 0.750016 0.000000
vt 0.750016 0.194009
vt 0.850016 0.411667
vt 0.800016 0.411667
vt 0.900016 0.411667
vt 0.950016 0.411667
vt 0.000016 0.411667
vt 0.050016 0.411667
vt 0.100016 0.411667
vt 0.150016 0.411667
vt 0.200016 0.411667
vt 0.250016 0.411667
vt 0.300016 0.411667
vt 0.350016 0.411667
vt 0.400016 0.411667
vt 0.450016 0.411667
vt 0.500016 0.411667
vt 0.550016 0.411667
vt 0.600016 0.411667
vt 0.650016 0.411667
vt 0.700016 0.411667
vt 0.750016 0.411667
vt 0.850015 0.757012
vt 0.800014 0.757012
vt 0.900015 0.757012
vt 0.950015 0.757012
vt 0.000016 0.757012
vt 0.050017 0.757012
vt 0.100017 0.757012
vt 0.150017 0.757012
vt 0.200017 0.757012
vt 0.250017 0.757012
vt 0.300017 0.757012
vt 0.350017 0.757012
vt 0.400017 0.757012
vt 0.450016 0.757012
vt 0.500016 0.757012
vt 0.550015 0.757012
vt 0.600015 0.757012
vt 0.650015 0.757012
vt 0.700015 0.757012
vt 0.750015 0.757012
vt 0.850010 1.000000
vt 0.800009 1.000000
vt 0.900012 1.000000
vt 0.950013 1.000000
vt 0.000016 1.000000
vt 0.050019 1.000000
vt 0.100020 1.000000
vt 0.150022 1.000000
vt 0.200023 1.000000
vt 0.250022 1.000000
vt 0.300022 1.000000
vt 0.350021 1.000000
vt 0.400020 1.000000
vt 0.450018 1.000000
vt 0.500016 1.000000
vt 0.550013 1.000000
vt 0.600011 1.000000
vt 0.650010 1.000000
vt 0.700010 1.000000
vt 0.750010 1.000000
vt 0.950016 0.000000
vt 1.000016 0.000000
vt 1.000016 0.194009
vt 1.000016 0.411667
vt 1.000016 0.757012
vt 1.000016 1.000000
vn 0.951046 0.004848 -0.309012
vn 0.809008 0.004848 -0.587778
vn 0.808656 0.029887 -0.587523
vn 0.950632 0.029887 -0.308878
vn 0.587778 0.004848 -0.809008
vn 0.587523 0.029887 -0.808655
vn 0.309013 0.004848 -0.951046
vn 0.308879 0.029887 -0.950632
vn -0.000000 0.004848 -0.999988
vn -0.000000 0.029887 -0.999553
vn -0.309013 0.004848 -0.951045
vn -0.308879 0.029887 -0.950632
vn -0.587779 0.004848 -0.809007
vn -0.587523 0.029887 -0.808655
vn -0.809008 0.004848 -0.587778
vn -0.808656 0.029887 -0.587522
vn -0.951045 0.004848 -0.309013
vn -0.950632 0.029887 -0.308879
vn -0.999988 0.004848 -0.000000
vn -0.999553 0.029887 0.000000
vn -0.951045 0.004848 0.309013
vn -0.950632 0.029887 0.308879
vn -0.809008 0.004848 0.587778
vn -0.808656 0.029887 0.587523
vn -0.587778 0.004848 0.809008
vn -0.587523 0.029887 0.808655
vn -0.309013 0.004848 0.951046
vn -0.308879 0.029887 0.950632
vn 0.000000 0.004848 0.999988
vn 0.000000 0.029887 0.999553
vn 0.309013 0.004848 0.951046
vn 0.308879 0.029887 0.950632
vn 0.587778 0.004848 0.809007
vn 0.587523 0.029887 0.808655
vn 0.809008 0.004848 0.587778
vn 0.808656 0.029887 0.587523
vn 0.951045 0.004848 0.309013
vn 0.950632 0.029887 0.308879
vn 0.999988 0.004848 0.000001
vn 0.999553 0.029887 0.000001
vn 0.806883 0.072587 -0.586235
vn 0.948548 0.072587 -0.308201
vn 0.586236 0.072588 -0.806882
vn 0.308201 0.072588 -0.948548
vn -0.000000 0.072588 -0.997362
vn -0.308202 0.072588 -0.948548
vn -0.586236 0.072588 -0.806882
vn -0.806883 0.072587 -0.586235
vn -0.948548 0.072587 -0.308202
vn -0.997362 0.072587 0.000000
vn -0.948547 0.072587 0.308202
vn -0.806883 0.072587 0.586234
vn -0.586236 0.072586 0.806882
vn -0.308202 0.072586 0.948548
vn 0.000000 0.072586 0.997362
vn 0.308203 0.072586 0.948548
vn 0.586235 0.072587 0.806883
vn 0.806883 0.072587 0.586235
vn 0.948548 0.072587 0.308202
vn 0.997362 0.072587 0.000001
vn 0.805749 0.089799 -0.585410
vn 0.947214 0.089799 -0.307770
vn 0.585413 0.089800 -0.805747
vn 0.307768 0.089800 -0.947214
vn -0.000000 0.089800 -0.995960
vn -0.307768 0.089800 -0.947214
vn -0.585412 0.089800 -0.805748
vn -0.805748 0.089799 -0.585412
vn -0.947214 0.089799 -0.307770
vn -0.995960 0.089798 0.000002
vn -0.947214 0.089798 0.307771
vn -0.805748 0.089797 0.585411
vn -0.585412 0.089797 0.805748
vn -0.307770 0.089797 0.947214
vn -0.000000 0.089797 0.995960
vn 0.307770 0.089797 0.947214
vn 0.585411 0.089797 0.805749
vn 0.805748 0.089798 0.585412
vn 0.947214 0.089798 0.307769
vn 0.995960 0.089798 0.000002
vn 0.805475 0.093484 -0.585211
vn 0.946891 0.093483 -0.307667
vn 0.585215 0.093485 -0.805471
vn 0.307662 0.093485 -0.946892
vn -0.000000 0.093485 -0.995621
vn -0.307664 0.093485 -0.946892
vn -0.585213 0.093484 -0.805473
vn -0.805472 0.093483 -0.585214
vn -0.946891 0.093482 -0.307667
vn -0.995621 0.093481 0.000004
vn -0.946891 0.093481 0.307668
vn -0.805473 0.093480 0.585214
vn -0.585213 0.093480 0.805474
vn -0.307666 0.093480 0.946891
vn -0.000000 0.093479 0.995621
vn 0.307668 0.093480 0.946891
vn 0.585210 0.093480 0.805475
vn 0.805472 0.093481 0.585215
vn 0.946891 0.093481 0.307667
vn 0.995621 0.093482 0.000005
s 1
g pCylinder1
usemtl initialShadingGroup
f 1/1/1 2/2/2 22/3/3 21/4/4
f 2/2/2 3/5/5 23/6/6 22/3/3
f 3/5/5 4/100/7 24/7/8 23/6/6
f 4/100/7 5/101/9 25/102/10 24/7/8
f 5/8/9 6/10/11 26/11/12 25/9/10
f 6/10/11 7/12/13 27/13/14 26/11/12
f 7/12/13 8/14/15 28/15/16 27/13/14
f 8/14/15 9/16/17 29/17/18 28/15/16
f 9/16/17 10/18/19 30/19/20 29/17/18
f 10/18/19 11/20/21 31/21/22 30/19/20
f 11/20/21 12/22/23 32/23/24 31/21/22
f 12/22/23 13/24/25 33/25/26 32/23/24
f 13/24/25 14/26/27 34/27/28 33/25/26
f 14/26/27 15/28/29 35/29/30 34/27/28
f 15/28/29 16/30/31 36/31/32 35/29/30
f 16/30/31 17/32/33 37/33/34 36/31/32
f 17/32/33 18/34/35 38/35/36 37/33/34
f 18/34/35 19/36/37 39/37/38 38/35/36
f 19/36/37 20/38/39 40/39/40 39/37/38
f 20/38/39 1/1/1 21/4/4 40/39/40
f 21/4/4 22/3/3 42/40/41 41/41/42
f 22/3/3 23/6/6 43/42/43 42/40/41
f 23/6/6 24/7/8 44/43/44 43/42/43
f 24/7/8 25/102/10 45/103/45 44/43/44
f 25/9/10 26/11/12 46/45/46 45/44/45
f 26/11/12 27/13/14 47/46/47 46/45/46
f 27/13/14 28/15/16 48/47/48 47/46/47
f 28/15/16 29/17/18 49/48/49 48/47/48
f 29/17/18 30/19/20 50/49/50 49/48/49
f 30/19/20 31/21/22 51/50/51 50/49/50
f 31/21/22 32/23/24 52/51/52 51/50/51
f 32/23/24 33/25/26 53/52/53 52/51/52
f 33/25/26 34/27/28 54/53/54 53/52/53
f 34/27/28 35/29/30 55/54/55 54/53/54
f 35/29/30 36/31/32 56/55/56 55/54/55
f 36/31/32 37/33/34 57/56/57 56/55/56
f 37/33/34 38/35/36 58/57/58 57/56/57
f 38/35/36 39/37/38 59/58/59 58/57/58
f 39/37/38 40/39/40 60/59/60 59/58/59
f 40/39/40 21/4/4 41/41/42 60/59/60
f 41/41/42 42/40/41 62/60/61 61/61/62
f 42/40/41 43/42/43 63/62/63 62/60/61
f 43/42/43 44/43/44 64/63/64 63/62/63
f 44/43/44 45/103/45 65/104/65 64/63/64
f 45/44/45 46/45/46 66/65/66 65/64/65
f 46/45/46 47/46/47 67/66/67 66/65/66
f 47/46/47 48/47/48 68/67/68 67/66/67
f 48/47/48 49/48/49 69/68/69 68/67/68
f 49/48/49 50/49/50 70/69/70 69/68/69
f 50/49/50 51/50/51 71/70/71 70/69/70
f 51/50/51 52/51/52 72/71/72 71/70/71
f 52/51/52 53/52/53 73/72/73 72/71/72
f 53/52/53 54/53/54 74/73/74 73/72/73
f 54/53/54 55/54/55 75/74/75 74/73/74
f 55/54/55 56/55/56 76/75/76 75/74/75
f 56/55/56 57/56/57 77/76/77 76/75/76
f 57/56/57 58/57/58 78/77/78 77/76/77
f 58/57/58 59/58/59 79/78/79 78/77/78
f 59/58/59 60/59/60 80/79/80 79/78/79
f 60/59/60 41/41/42 61/61/62 80/79/80
f 61/61/62 62/60/61 82/80/81 81/81/82
f 62/60/61 63/62/63 83/82/83 82/80/81
f 63/62/63 64/63/64 84/83/84 83/82/83
f 64/63/64 65/104/65 85/105/85 84/83/84
f 65/64/65 66/65/66 86/85/86 85/84/85
f 66/65/66 67/66/67 87/86/87 86/85/86
f 67/66/67 68/67/68 88/87/88 87/86/87
f 68/67/68 69/68/69 89/88/89 88/87/88
f 69/68/69 70/69/70 90/89/90 89/88/89
f 70/69/70 71/70/71 91/90/91 90/89/90
f 71/70/71 72/71/72 92/91/92 91/90/91
f 72/71/72 73/72/73 93/92/93 92/91/92
f 73/72/73 74/73/74 94/93/94 93/92/93
f 74/73/74 75/74/75 95/94/95 94/93/94
f 75/74/75 76/75/76 96/95/96 95/94/95
f 76/75/76 77/76/77 97/96/97 96/95/96
f 77/76/77 78/77/78 98/97/98 97/96/97
f 78/77/78 79/78/79 99/98/99 98/97/98
f 79/78/79 80/79/80 100/99/100 99/98/99
f 80/79/80 61/61/62 81/81/82 100/99/100
